<svg xmlns="http://www.w3.org/2000/svg" version="1.1" xmlns:xlink="http://www.w3.org/1999/xlink" width="1000" height="1000"><g clip-path="url(#SvgjsClipPath1481)"><rect width="1000" height="1000" fill="#f5f0e8"></rect><g transform="matrix(0.9765625,0,0,0.9765625,0,0)"><svg xmlns="http://www.w3.org/2000/svg" xmlns:xlink="http://www.w3.org/1999/xlink" width="1024" height="1024" viewBox="0 0 1024 1024"><path fill="#F5F0E8" d="M0 0L1024 0L1024 1024L0 1024L0 0Z"></path><path fill="#1A1A1A" d="M345.361 241.713C347.661 241.412 353.604 241.411 356.004 241.409C395.252 241.368 435.542 254.447 463.63 282.687C488.911 308.105 501.953 342.285 505.523 377.543C506.8 390.153 506.538 403.591 506.574 416.318C506.637 430.555 506.617 444.792 506.513 459.029C468.776 458.599 430.494 459.07 392.675 458.927C392.781 446.261 392.775 433.595 392.655 420.929C392.596 398.49 394.688 369.503 379.354 351.325C374.426 345.484 367.763 342.453 360.253 341.94C352.656 341.421 343.654 343.548 338.183 349.047C326.051 361.243 322.67 381.971 322.562 398.339C322.402 422.602 322.575 446.768 322.666 470.937L322.625 575.305L322.594 640.4C322.598 661.857 320.061 696.7 336.138 712.848C341.669 718.344 349.146 721.435 356.944 721.449C374.92 721.647 384.305 708.341 389.005 692.695C393.393 678.09 392.673 663.756 392.687 648.741L392.581 613.656L446.25 613.589L506.575 613.541C506.92 655.997 509.533 691.089 494.65 731.328C489.028 746.889 480.749 761.356 470.181 774.086C444.826 804.252 409.16 820.344 370.313 823.481C330.073 826.73 287.586 816.636 256.54 789.963C224.998 762.863 209.13 720.753 206.183 680.044C204.942 662.904 205.537 642.401 205.53 624.891L205.493 531.038L205.497 438.123C205.503 411.891 204.003 385.327 209.227 359.52C223.245 290.288 275.488 246.906 345.361 241.713Z"></path><path fill="#1A1A1A" d="M664.821 241.712C668.116 241.316 671.656 241.438 674.988 241.439C714.239 241.456 753.666 254.022 781.772 282.391C789.163 289.85 795.358 298.192 800.963 307.045C830.651 353.934 825.762 406.115 825.583 458.989L711.991 458.979L712.017 417.573C711.999 395.279 713.389 368.771 697.784 350.714C688.267 339.702 667.604 338.562 657.308 349.175C644.567 362.307 641.986 383.612 641.872 401.164C641.83 418.675 641.935 436.233 641.89 453.767L641.656 584.821L641.685 642.964C641.719 664.962 639.565 695.688 655.415 713.094C665.488 724.157 686.953 724.08 697.117 712.95C713.395 695.124 712.064 668.645 712.025 646.142L711.967 613.601L766.25 613.6L825.521 613.649C825.567 634.705 826.241 660.268 825.022 680.791C822.457 715.2 810.811 747.994 788.807 774.667C742.233 831.122 652.258 837.927 591.486 801.904C549.759 777.171 528.433 726.095 525.426 679.186C524.234 660.577 524.849 639.83 524.861 620.873L524.99 516.974L524.796 435.936C524.702 410.762 523.529 386.831 528.181 361.925C541.344 291.447 594.024 246.539 664.821 241.712Z"></path></svg></g></g><defs><clipPath id="SvgjsClipPath1481"><rect width="1000" height="1000" x="0" y="0" rx="300" ry="300"></rect></clipPath></defs></svg>